<svg width="360" height="178" viewBox="0 0 360 178" fill="none" xmlns="http://www.w3.org/2000/svg">
<path d="M0 0H8.49891V45.287C9.87491 41.5637 12.4246 38.0427 16.1479 34.7241C19.8712 31.4055 24.0802 29.7461 28.7748 29.7461C45.2061 29.7461 53.4218 39.3783 53.4218 58.6425C53.4218 80.4966 42.8184 91.4239 21.6115 91.4239C15.379 91.4239 8.17513 90.4121 0 88.3884V0ZM28.6534 30.7175C23.6351 30.7175 19.1023 32.9029 15.0552 37.2737C11.0081 41.5637 8.82268 45.4488 8.49891 48.9293V87.66C13.4364 89.5219 17.7667 90.4526 21.4901 90.4526C37.1119 90.4526 44.9227 79.8087 44.9227 58.5209C44.9227 39.9851 39.4996 30.7175 28.6534 30.7175ZM71.3338 61.3135C71.3338 71.3502 73.0741 78.7162 76.5546 83.4104C80.1159 88.1051 84.7704 90.4526 90.517 90.4526C98.6115 90.4526 105.815 89.2385 112.129 86.8103L112.493 87.66C106.018 90.1692 98.6921 91.4239 90.517 91.4239C82.4228 91.4239 75.8262 88.9957 70.727 84.1393C65.6274 79.2825 63.078 71.7957 63.078 61.6779C63.078 51.5602 65.749 43.7085 71.091 38.1236C76.433 32.5386 83.2324 29.7461 91.4882 29.7461C98.1258 29.7461 103.711 31.7292 108.244 35.6954C112.776 39.6616 115.043 45.5298 115.043 53.3C115.043 53.705 115.043 54.1096 115.043 54.5145H71.6983C71.4554 56.6999 71.3338 58.9664 71.3338 61.3135ZM106.786 53.5433C106.706 45.7727 105.208 40.0257 102.294 36.3025C99.3801 32.5791 95.6166 30.7175 91.0026 30.7175C86.389 30.7175 82.2611 32.741 78.6188 36.7881C75.0572 40.8352 72.7907 46.42 71.8195 53.5433H106.786ZM193.202 44.1941C193.202 39.2567 192.554 35.7763 191.259 33.7528C189.964 31.7292 187.496 30.7175 183.853 30.7175C178.997 30.7175 174.666 32.741 170.862 36.7881C167.139 40.8352 165.277 44.4775 165.277 47.7152V90.9382H156.778V44.1941C156.778 39.2567 156.131 35.7763 154.836 33.7528C153.54 31.7292 150.788 30.7175 146.579 30.7175C142.37 30.7175 138.364 32.6601 134.56 36.5453C130.836 40.4306 128.813 44.0324 128.489 47.3512V90.9382H119.99V30.2318H128.489V43.9513C129.784 40.4708 132.172 37.2333 135.652 34.2384C139.133 31.2436 143.018 29.7461 147.308 29.7461C151.598 29.7461 154.997 30.1509 157.507 30.9603C160.097 31.6888 161.918 32.8624 162.97 34.4812C164.023 36.1001 164.67 37.5166 164.913 38.7307C165.156 39.945 165.277 41.6447 165.277 43.8301C166.572 40.3496 168.919 37.1523 172.319 34.2384C175.718 31.2436 179.361 29.7461 183.246 29.7461C187.131 29.7461 190.248 30.0699 192.595 30.7175C194.942 31.365 196.682 32.0935 197.816 32.9029C199.03 33.7123 199.92 34.886 200.487 36.4239C201.134 37.9617 201.499 39.2165 201.58 40.1878C201.66 41.1591 201.701 42.5349 201.701 44.3157V82.3179C201.701 84.6651 202.146 86.4864 203.037 87.7816C204.008 88.9957 204.979 89.6431 205.95 89.7241L207.286 89.9669H211.05V90.9382H203.643C200.325 90.9382 197.775 90.2098 195.994 88.7529C194.295 87.2959 193.404 85.839 193.323 84.3821L193.202 82.3179V44.1941Z" fill="black"/>
<path d="M215.946 114.058C214.687 112.799 214.057 111.225 214.057 109.336C214.057 107.447 214.687 105.873 215.946 104.614C217.205 103.25 218.779 102.568 220.667 102.568C222.557 102.568 224.13 103.25 225.39 104.614C226.753 105.873 227.436 107.447 227.436 109.336C227.436 111.225 226.753 112.799 225.39 114.058C224.13 115.317 222.557 115.947 220.667 115.947C218.779 115.947 217.205 115.317 215.946 114.058Z" fill="#F9C62E"/>
<path d="M102.568 111.067V110.437H104.221V102.568H109.729V110.437H121.769V111.067H109.729V139.711C109.729 143.121 110.097 145.587 110.831 147.108C111.618 148.629 113.218 149.39 115.631 149.39C118.097 149.39 120.589 148.892 123.107 147.895L123.343 148.524C120.72 149.521 117.703 150.02 114.294 150.02C110.936 150.02 108.418 149.337 106.739 147.974C105.06 146.557 104.221 143.777 104.221 139.632V111.067H102.568ZM132.213 130.583C132.213 137.088 133.341 141.862 135.596 144.905C137.905 147.947 140.921 149.469 144.646 149.469C149.892 149.469 154.561 148.682 158.653 147.108L158.889 147.659C154.692 149.285 149.945 150.098 144.646 150.098C139.4 150.098 135.124 148.524 131.819 145.377C128.514 142.229 126.862 137.376 126.862 130.819C126.862 124.261 128.593 119.172 132.055 115.552C135.518 111.933 139.924 110.123 145.275 110.123C149.577 110.123 153.197 111.408 156.135 113.978C159.073 116.549 160.542 120.353 160.542 125.389C160.542 125.651 160.542 125.914 160.542 126.176H132.449C132.291 127.592 132.213 129.061 132.213 130.583ZM155.191 125.546C155.138 120.51 154.168 116.785 152.279 114.372C150.391 111.959 147.951 110.752 144.961 110.752C141.97 110.752 139.295 112.064 136.934 114.687C134.626 117.31 133.157 120.93 132.527 125.546H155.191Z" fill="black"/>
<path fill-rule="evenodd" clip-rule="evenodd" d="M208.202 126.239L207.59 126.85C208.678 127.87 209.221 129.365 209.221 131.336C209.221 133.307 208.814 135.007 207.998 136.434L192.196 168.447L176.597 126.239H169.46L188.423 177.215H189.443L209.018 136.434C209.833 134.531 210.241 132.662 210.241 130.827C210.241 130.351 210.173 129.841 210.037 129.297C209.969 128.754 209.697 128.142 209.221 127.462C208.814 126.782 208.474 126.375 208.202 126.239ZM219.844 175.38C221.34 176.603 223.481 177.215 226.267 177.215H232.486V176.399H229.326L228.102 176.195C227.355 176.127 226.573 175.583 225.758 174.564C225.01 173.476 224.636 171.947 224.636 169.976V126.239H217.499V169.976L217.602 171.709C217.669 172.933 218.417 174.156 219.844 175.38ZM264.132 127.564C266.579 128.176 268.346 128.923 269.434 129.807L269.944 129.093C266.681 126.918 262.127 125.831 256.282 125.831C252.815 125.831 249.349 126.409 245.883 127.564C243.844 128.244 242.213 129.433 240.989 131.132C239.766 132.764 239.154 134.905 239.154 137.555C239.154 140.206 240.139 142.551 242.11 144.59C244.082 146.561 246.495 148.124 249.349 149.28C252.204 150.367 255.024 151.489 257.811 152.644C260.666 153.732 263.079 155.295 265.05 157.334C267.021 159.305 268.006 161.956 268.006 165.286C268.006 168.549 266.681 171.301 264.03 173.545C261.447 175.719 258.151 176.807 254.141 176.807C251.626 176.807 249.009 176.399 246.29 175.583C243.64 174.768 241.635 173.714 240.275 172.423L239.664 173.035C243.13 176.093 248.33 177.622 255.262 177.622C258.457 177.622 261.413 177.249 264.132 176.501C266.919 175.753 269.434 174.258 271.676 172.015C273.92 169.772 275.041 167.053 275.041 163.859C275.041 160.665 274.327 158.014 272.9 155.907C271.473 153.732 269.671 152.101 267.497 151.013C265.389 149.858 263.079 148.736 260.564 147.649C258.117 146.561 255.806 145.61 253.631 144.794C251.524 143.91 249.757 142.721 248.33 141.226C246.902 139.662 246.189 137.759 246.189 135.516C246.189 133.273 247.004 131.268 248.636 129.501C250.267 127.666 252.918 126.714 256.588 126.647H258.729C259.952 126.647 261.753 126.952 264.132 127.564ZM284.306 126.239H282.165V127.054H284.306V164.063C284.306 169.432 285.393 173.035 287.568 174.87C289.743 176.637 293.006 177.521 297.356 177.521C301.774 177.521 305.682 176.875 309.08 175.583L308.775 174.768C305.512 176.059 302.283 176.705 299.089 176.705C295.962 176.705 293.889 175.719 292.87 173.748C291.918 171.777 291.443 168.583 291.443 164.165V127.054H307.041V126.239H291.443V110.275H284.306V126.239ZM347.358 174.564C349.058 176.331 352.218 177.215 356.84 177.215H360V176.399H356.84L355.718 176.195C354.903 176.127 354.087 175.583 353.272 174.564C352.524 173.476 352.15 171.947 352.15 169.976V135.822C352.15 133.647 351.267 131.574 349.499 129.603C347.256 127.088 342.635 125.831 335.634 125.831C329.381 125.831 323.23 127.224 317.181 130.011L317.588 130.725C319.152 129.841 321.599 128.957 324.929 128.074C328.327 127.122 331.284 126.647 333.799 126.647C336.314 126.647 338.353 126.986 339.916 127.666C341.479 128.278 342.567 129.025 343.178 129.909C343.79 130.793 344.266 131.71 344.606 132.662C345.014 133.545 345.149 134.293 345.014 134.905C344.878 135.448 344.878 135.754 345.014 135.822V152.746C343.518 152.61 341.853 152.542 340.018 152.542C338.183 152.542 336.178 152.644 334.003 152.848C325.235 153.392 319.559 154.887 316.977 157.334C315.685 158.558 314.904 159.679 314.632 160.699C314.36 161.718 314.224 162.67 314.224 163.553C314.224 164.369 314.292 165.184 314.428 166C315.583 173.748 320.443 177.622 329.007 177.622C336.348 177.622 341.683 174.598 345.014 168.549V170.69C345.014 171.777 345.795 173.069 347.358 174.564ZM340.324 173.136C337.469 175.583 334.24 176.807 330.638 176.807C325.201 176.807 322.176 173.205 321.564 166C321.497 165.32 321.463 164.708 321.463 164.165C321.463 161.174 322.244 158.83 323.807 157.13C325.371 155.431 328.735 154.275 333.901 153.664C335.736 153.46 337.571 153.358 339.406 153.358C341.309 153.358 343.178 153.426 345.014 153.562V165.898C344.809 168.209 343.246 170.622 340.324 173.136Z" fill="black"/>
<path fill-rule="evenodd" clip-rule="evenodd" d="M249.781 51.0524C246.22 54.377 243.963 58.5679 242.716 63.2097C232.682 100.573 279.524 119.471 316.784 109.058C338.539 102.979 314.308 89.5854 301.585 75.1974C285.018 56.4623 266.764 19.7607 249.781 51.0524Z" fill="#F9C62E"/>
<path d="M325.542 123.878C325.542 123.878 333.63 122.86 337.635 122.86C342.013 122.86 347.84 123.878 347.84 123.878C344.211 118.855 308.339 70.4643 292.823 48.8204L269.668 16.992C255.262 2.23017 226.267 6.68966 225.472 31.1246C225.11 42.2561 217.947 50.768 214.749 50.101C214.749 50.101 236.971 73.9859 249.424 57.8786C261.877 41.7713 264.836 37.3239 273.944 52.4321L325.542 123.878Z" fill="black"/>
<path d="M273.944 52.4321C272.532 46.5943 272.888 34.1918 278.477 29.1002L347.84 123.878C347.84 123.878 342.013 122.86 337.635 122.86C333.63 122.86 325.542 123.878 325.542 123.878L273.944 52.4321Z" fill="#9A6E58"/>
</svg>
